<mxfile host="app.diagrams.net" modified="2024-03-23T02:39:22.735Z" agent="Mozilla/5.0 (Windows NT 10.0; Win64; x64) AppleWebKit/537.36 (KHTML, like Gecko) Chrome/122.0.0.0 Safari/537.36" version="24.0.8" etag="5k9lyQXxhf35KSzVHsQ6" type="github">
  <diagram name="Page-1" id="bug_Sx25JCr8oRmvc6HJ">
    <mxGraphModel>
      <root>
        <mxCell id="0" />
        <mxCell id="1" parent="0" />
      </root>
    </mxGraphModel>
  </diagram>
</mxfile>
